<?xml version="1.0" encoding="iso-8859-1"?>
<!-- Uploaded to: SVG Repo, www.svgrepo.com, Generator: SVG Repo Mixer Tools -->
<svg fill="#000000" height="800px" width="800px" version="1.1" id="Layer_1" xmlns="http://www.w3.org/2000/svg" xmlns:xlink="http://www.w3.org/1999/xlink" 
	 viewBox="0 0 493.39 493.39" xml:space="preserve">
<g>
	<g>
		<path d="M420.775,317.44c-39.52,0-71.68,31.265-71.68,69.695c0,3.431,0.238,6.794,0.636,10.102l-147.283-29.458
			c2.034-8.909,3.287-18.133,3.287-27.714c0-24.861-9.513-47.562-25.103-65.013l110.577-85.535
			c30.644,50.994,80.054,83.391,83.056,85.327l5.55,3.58l5.55-3.58c4.37-2.82,107.09-70.185,107.09-165.51
			C492.455,49.045,441.925,0,379.815,0s-112.64,49.045-112.64,109.335c0,22.292,5.658,43.029,14.322,61.795l-116.253,89.926
			c-17.218-12.75-38.634-20.416-61.909-20.416c-56.46,0-102.4,44.6-102.4,99.425c0,83.5,86.6,143.145,96.56,149.725l6.12,3.6
			l5.56-3.6l0.09-0.05c7.876-5.211,64.503-44.306,87.105-102.293l158.937,31.789c15.311,40.027,54.238,66.938,59.708,70.554
			l6.07,3.6l5.66-3.665c6.73-4.46,65.71-45.255,65.71-102.59C492.455,348.705,460.295,317.44,420.775,317.44z M379.815,20.48
			c50.82,0,92.16,39.86,92.16,88.855c0,72.28-71.46,129.4-92.17,144.425c-20.71-14.995-92.15-71.99-92.15-144.425
			C287.655,60.34,328.995,20.48,379.815,20.48z M103.335,468.885c-19.15-13.985-81.92-64.71-81.92-128.82
			c0-43.53,36.75-78.945,81.92-78.945c45.17,0,81.92,35.415,81.92,78.945C185.255,404.175,122.485,454.9,103.335,468.885z
			 M420.825,468.78c-14.23-10.74-51.25-42.465-51.25-81.645c0-27.135,22.97-49.215,51.2-49.215c28.23,0,51.2,22.08,51.2,49.215
			C471.975,426.3,435.035,458.03,420.825,468.78z"/>
	</g>
</g>
<g>
	<g>
		<path d="M379.815,57.805c-29.17,0-52.91,23.115-52.91,51.53c0,28.415,23.74,51.53,52.91,51.53s52.91-23.115,52.91-51.53
			C432.725,80.92,408.985,57.805,379.815,57.805z M379.815,140.385c-17.88,0-32.43-13.93-32.43-31.05s14.55-31.05,32.43-31.05
			s32.43,13.93,32.43,31.05S397.695,140.385,379.815,140.385z"/>
	</g>
</g>
<g>
	<g>
		<path d="M103.335,292.665c-26.82,0-48.64,21.265-48.64,47.4s21.82,47.4,48.64,47.4s48.64-21.265,48.64-47.4
			S130.155,292.665,103.335,292.665z M103.335,366.985c-15.53,0-28.16-12.075-28.16-26.92c0-14.845,12.63-26.92,28.16-26.92
			c15.53,0,28.16,12.075,28.16,26.92C131.495,354.91,118.865,366.985,103.335,366.985z"/>
	</g>
</g>
<g>
	<g>
		<path d="M420.775,357.08c-16.94,0-30.72,13.485-30.72,30.055c0,16.575,13.78,30.06,30.72,30.06s30.72-13.485,30.72-30.06
			C451.495,370.565,437.715,357.08,420.775,357.08z M420.775,396.715c-5.65,0-10.24-4.3-10.24-9.58c0-5.28,4.59-9.575,10.24-9.575
			c5.65,0,10.24,4.295,10.24,9.575C431.015,392.415,426.425,396.715,420.775,396.715z"/>
	</g>
</g>
</svg>